<?xml version="1.0" encoding="utf-8"?>
<!-- Generator: Adobe Illustrator 25.4.1, SVG Export Plug-In . SVG Version: 6.00 Build 0)  -->
<svg version="1.1" id="Capa_1" xmlns:serif="http://www.serif.com/"
	 xmlns="http://www.w3.org/2000/svg" xmlns:xlink="http://www.w3.org/1999/xlink" x="0px" y="0px" viewBox="0 0 32 32"
	 style="enable-background:new 0 0 32 32;" xml:space="preserve">
<style type="text/css">
	.st0{fill-rule:evenodd;clip-rule:evenodd;}
	.st1{fill-rule:evenodd;clip-rule:evenodd;fill:#5536C1;}
	.st2{fill-rule:evenodd;clip-rule:evenodd;fill:#FFFFFF;}
</style>
<rect class="st0" width="32" height="32"/>
<g>
	<path class="st1" d="M29,9.5v13C29,26,26,29,22.5,29h-13C6,29,3,26,3,22.5v-13C3,6,6,3,9.5,3h13C26,3,29,6,29,9.5z"/>
	<path class="st2" d="M9.3,17.4l1.9-0.8l0,3.9l4.8-6.2l-4.8,2.3v0L9.3,17.4L5.1,15l21.8-7.5l-7.4,16.1L15.3,20l-5.8,4.5L9.3,17.4
		L9.3,17.4z"/>
</g>
</svg>
