<?xml version="1.0" encoding="UTF-8" standalone="no"?><!DOCTYPE svg PUBLIC "-//W3C//DTD SVG 1.1//EN" "http://www.w3.org/Graphics/SVG/1.1/DTD/svg11.dtd"><svg width="100%" height="100%" viewBox="0 0 3542 834" version="1.1" xmlns="http://www.w3.org/2000/svg" xmlns:xlink="http://www.w3.org/1999/xlink" xml:space="preserve" xmlns:serif="http://www.serif.com/" style="fill-rule:evenodd;clip-rule:evenodd;stroke-linejoin:round;stroke-miterlimit:2;"><path d="M756.931,226.526l0,361.937c0,99.879 -81.089,180.968 -180.968,180.968l-361.937,0c-99.879,0 -180.968,-81.089 -180.968,-180.968l0,-361.937c0,-99.879 81.089,-180.968 180.968,-180.968l361.937,0c99.879,0 180.968,81.089 180.968,180.968Z" style="fill:#5536c1;"/><path d="M208.158,447.581l52.491,-22.553l0.844,108.144l133.501,-172.855l-134.346,64.711l-0,-0.062l-52.49,22.616l-117.604,-68.753l608.882,-208.862l-207.218,449.499l-117.604,-101.321l-162.173,126.88l-4.282,-197.442Z" style="fill:#fff;"/><g><g><path d="M974.717,255.979c23.25,0 43.438,3.875 60.562,11.625c17.125,7.75 30.312,18.75 39.562,33c9.25,14.25 13.875,31.125 13.875,50.625c0,19.25 -4.625,36.063 -13.875,50.438c-9.25,14.375 -22.438,25.375 -39.562,33c-17.125,7.625 -37.312,11.438 -60.562,11.438l-52.875,0l0,72.375l-60.75,0l0,-262.5l113.625,0Zm-3.375,140.625c18.25,0 32.125,-3.938 41.625,-11.813c9.5,-7.875 14.25,-19.062 14.25,-33.562c0,-14.75 -4.75,-26.062 -14.25,-33.937c-9.5,-7.875 -23.375,-11.813 -41.625,-11.813l-49.5,0l0,91.125l49.5,0Z" style="fill:#fff;fill-rule:nonzero;"/><rect x="1131.467" y="240.229" width="58.5" height="278.25" style="fill:#fff;fill-rule:nonzero;"/><path d="M1325.717,313.729c31.25,0 55.25,7.438 72,22.313c16.75,14.875 25.125,37.312 25.125,67.312l0,115.125l-54.75,0l0,-25.125c-11,18.75 -31.5,28.125 -61.5,28.125c-15.5,0 -28.938,-2.625 -40.313,-7.875c-11.375,-5.25 -20.062,-12.5 -26.062,-21.75c-6,-9.25 -9,-19.75 -9,-31.5c0,-18.75 7.062,-33.5 21.187,-44.25c14.125,-10.75 35.938,-16.125 65.438,-16.125l46.5,0c0,-12.75 -3.875,-22.563 -11.625,-29.438c-7.75,-6.875 -19.375,-10.312 -34.875,-10.312c-10.75,0 -21.312,1.688 -31.687,5.062c-10.375,3.375 -19.188,7.938 -26.438,13.688l-21,-40.875c11,-7.75 24.188,-13.75 39.562,-18c15.375,-4.25 31.188,-6.375 47.438,-6.375Zm-4.5,168.375c10,0 18.875,-2.312 26.625,-6.937c7.75,-4.625 13.25,-11.438 16.5,-20.438l0,-20.625l-40.125,0c-24,0 -36,7.875 -36,23.625c0,7.5 2.937,13.437 8.812,17.812c5.875,4.375 13.937,6.562 24.187,6.562Z" style="fill:#fff;fill-rule:nonzero;"/><path d="M1598.342,313.729c25,0 45.187,7.5 60.562,22.5c15.375,15 23.062,37.25 23.062,66.75l0,115.5l-58.5,0l0,-106.5c0,-16 -3.5,-27.938 -10.5,-35.812c-7,-7.875 -17.125,-11.812 -30.375,-11.812c-14.75,0 -26.5,4.562 -35.25,13.688c-8.75,9.125 -13.125,22.687 -13.125,40.688l0,99.75l-58.5,0l0,-201.75l55.875,0l0,23.625c7.75,-8.5 17.375,-15.062 28.875,-19.687c11.5,-4.625 24.125,-6.938 37.875,-6.938Z" style="fill:#fff;fill-rule:nonzero;"/><path d="M1934.717,418.354c0,0.75 -0.375,6 -1.125,15.75l-152.625,0c2.75,12.5 9.25,22.375 19.5,29.625c10.25,7.25 23,10.875 38.25,10.875c10.5,0 19.812,-1.562 27.937,-4.688c8.125,-3.125 15.688,-8.063 22.688,-14.813l31.125,33.75c-19,21.75 -46.75,32.625 -83.25,32.625c-22.75,0 -42.875,-4.438 -60.375,-13.312c-17.5,-8.875 -31,-21.188 -40.5,-36.938c-9.5,-15.75 -14.25,-33.625 -14.25,-53.625c0,-19.75 4.688,-37.562 14.063,-53.437c9.375,-15.875 22.25,-28.25 38.625,-37.125c16.375,-8.875 34.688,-13.312 54.937,-13.312c19.75,0 37.625,4.25 53.625,12.75c16,8.5 28.563,20.687 37.688,36.562c9.125,15.875 13.688,34.313 13.688,55.312Zm-104.625,-60.375c-13.25,0 -24.375,3.75 -33.375,11.25c-9,7.5 -14.5,17.75 -16.5,30.75l99.375,0c-2,-12.75 -7.5,-22.938 -16.5,-30.563c-9,-7.625 -20,-11.437 -33,-11.437Z" style="fill:#fff;fill-rule:nonzero;"/><path d="M2049.467,313.729c31.25,0 55.25,7.438 72,22.313c16.75,14.875 25.125,37.312 25.125,67.312l0,115.125l-54.75,0l0,-25.125c-11,18.75 -31.5,28.125 -61.5,28.125c-15.5,0 -28.938,-2.625 -40.312,-7.875c-11.375,-5.25 -20.062,-12.5 -26.062,-21.75c-6,-9.25 -9,-19.75 -9,-31.5c0,-18.75 7.062,-33.5 21.188,-44.25c14.125,-10.75 35.938,-16.125 65.438,-16.125l46.5,0c0,-12.75 -3.875,-22.563 -11.625,-29.438c-7.75,-6.875 -19.375,-10.312 -34.875,-10.312c-10.75,0 -21.312,1.688 -31.687,5.062c-10.375,3.375 -19.188,7.938 -26.438,13.688l-21,-40.875c11,-7.75 24.188,-13.75 39.562,-18c15.375,-4.25 31.188,-6.375 47.438,-6.375Zm-4.5,168.375c10,0 18.875,-2.312 26.625,-6.937c7.75,-4.625 13.25,-11.438 16.5,-20.438l0,-20.625l-40.125,0c-24,0 -36,7.875 -36,23.625c0,7.5 2.937,13.437 8.812,17.812c5.875,4.375 13.937,6.562 24.187,6.562Z" style="fill:#fff;fill-rule:nonzero;"/><path d="M2215.217,255.979l106.875,0c27.75,0 52.25,5.562 73.5,16.688c21.25,11.125 37.75,26.625 49.5,46.5c11.75,19.875 17.625,42.562 17.625,68.063c0,25.5 -5.875,48.187 -17.625,68.062c-11.75,19.875 -28.25,35.375 -49.5,46.5c-21.25,11.125 -45.75,16.688 -73.5,16.688l-106.875,0l0,-262.5Zm105.375,238.5c23,0 43.125,-4.562 60.375,-13.687c17.25,-9.125 30.625,-21.75 40.125,-37.875c9.5,-16.125 14.25,-34.688 14.25,-55.687c0,-21 -4.75,-39.563 -14.25,-55.688c-9.5,-16.125 -22.875,-28.75 -40.125,-37.875c-17.25,-9.125 -37.375,-13.688 -60.375,-13.688l-77.625,0l0,214.5l77.625,0Z" style="fill:#fff;fill-rule:nonzero;"/><path d="M2519.342,321.229l26.625,0l0,197.25l-26.625,0l0,-197.25Zm13.5,-43.125c-5.5,0 -10.125,-1.875 -13.875,-5.625c-3.75,-3.75 -5.625,-8.25 -5.625,-13.5c0,-5 1.875,-9.375 5.625,-13.125c3.75,-3.75 8.375,-5.625 13.875,-5.625c5.5,0 10.125,1.812 13.875,5.437c3.75,3.625 5.625,7.938 5.625,12.938c-0,5.5 -1.875,10.125 -5.625,13.875c-3.75,3.75 -8.375,5.625 -13.875,5.625Z" style="fill:#fff;fill-rule:nonzero;"/><path d="M2802.842,321.229l0,173.25c0,33.5 -8.188,58.312 -24.562,74.437c-16.375,16.125 -41.062,24.188 -74.062,24.188c-18.25,0 -35.563,-2.687 -51.938,-8.062c-16.375,-5.375 -29.688,-12.812 -39.938,-22.312l13.5,-20.25c9.5,8.5 21.062,15.125 34.687,19.875c13.625,4.75 27.938,7.125 42.938,7.125c25,0 43.375,-5.813 55.125,-17.438c11.75,-11.625 17.625,-29.688 17.625,-54.188l0,-25.125c-8.25,12.5 -19.062,22 -32.438,28.5c-13.375,6.5 -28.187,9.75 -44.438,9.75c-18.5,0 -35.312,-4.063 -50.437,-12.188c-15.125,-8.125 -27,-19.5 -35.625,-34.125c-8.625,-14.625 -12.938,-31.188 -12.938,-49.688c0,-18.5 4.312,-35 12.938,-49.5c8.625,-14.5 20.437,-25.75 35.437,-33.75c15,-8 31.875,-12 50.625,-12c16.75,0 31.875,3.375 45.375,10.125c13.5,6.75 24.375,16.5 32.625,29.25l0,-37.875l25.5,0Zm-100.875,166.125c14.25,0 27.125,-3.062 38.625,-9.188c11.5,-6.125 20.438,-14.688 26.812,-25.688c6.375,-11 9.562,-23.5 9.562,-37.5c0,-14 -3.188,-26.438 -9.562,-37.312c-6.375,-10.875 -15.25,-19.375 -26.625,-25.5c-11.375,-6.125 -24.312,-9.188 -38.812,-9.188c-14.25,0 -27.062,3 -38.437,9c-11.375,6 -20.25,14.5 -26.625,25.5c-6.375,11 -9.562,23.5 -9.562,37.5c0,14 3.188,26.5 9.562,37.5c6.375,11 15.25,19.563 26.625,25.688c11.375,6.125 24.187,9.188 38.437,9.188Z" style="fill:#fff;fill-rule:nonzero;"/><path d="M2877.467,321.229l26.625,0l0,197.25l-26.625,0l0,-197.25Zm13.5,-43.125c-5.5,0 -10.125,-1.875 -13.875,-5.625c-3.75,-3.75 -5.625,-8.25 -5.625,-13.5c0,-5 1.875,-9.375 5.625,-13.125c3.75,-3.75 8.375,-5.625 13.875,-5.625c5.5,0 10.125,1.812 13.875,5.437c3.75,3.625 5.625,7.938 5.625,12.938c0,5.5 -1.875,10.125 -5.625,13.875c-3.75,3.75 -8.375,5.625 -13.875,5.625Z" style="fill:#fff;fill-rule:nonzero;"/><path d="M3082.217,506.479c-5,4.5 -11.188,7.938 -18.563,10.312c-7.375,2.375 -15.063,3.562 -23.063,3.562c-18.5,0 -32.75,-5 -42.75,-15c-10,-10 -15,-24.125 -15,-42.375l0,-119.25l-35.25,0l0,-22.5l35.25,0l0,-43.125l26.625,0l0,43.125l60,0l0,22.5l-60,0l0,117.75c0,11.75 2.938,20.688 8.812,26.812c5.875,6.125 14.313,9.188 25.313,9.188c5.5,0 10.812,-0.875 15.938,-2.625c5.125,-1.75 9.562,-4.25 13.312,-7.5l9.375,19.125Z" style="fill:#fff;fill-rule:nonzero;"/><path d="M3199.592,319.729c25.75,0 45.5,6.438 59.25,19.313c13.75,12.875 20.625,31.937 20.625,57.187l0,122.25l-25.5,0l0,-30.75c-6,10.25 -14.812,18.25 -26.438,24c-11.625,5.75 -25.437,8.625 -41.438,8.625c-22,0 -39.5,-5.25 -52.5,-15.75c-13,-10.5 -19.5,-24.375 -19.5,-41.625c0,-16.75 6.063,-30.25 18.188,-40.5c12.125,-10.25 31.438,-15.375 57.938,-15.375l62.625,0l0,-12c0,-17 -4.75,-29.938 -14.25,-38.812c-9.5,-8.875 -23.375,-13.313 -41.625,-13.313c-12.5,0 -24.5,2.062 -36,6.188c-11.5,4.125 -21.375,9.812 -29.625,17.062l-12,-19.875c10,-8.5 22,-15.062 36,-19.687c14,-4.625 28.75,-6.938 44.25,-6.938Zm-9.375,179.625c15,0 27.875,-3.438 38.625,-10.312c10.75,-6.875 18.75,-16.812 24,-29.812l0,-32.25l-61.875,0c-33.75,0 -50.625,11.75 -50.625,35.25c0,11.5 4.375,20.562 13.125,27.188c8.75,6.625 21,9.937 36.75,9.937Z" style="fill:#fff;fill-rule:nonzero;"/><rect x="3351.842" y="240.229" width="26.625" height="278.25" style="fill:#fff;fill-rule:nonzero;"/></g></g></svg>