<svg xmlns="http://www.w3.org/2000/svg" version="1.1" xmlns:xlink="http://www.w3.org/1999/xlink" width="512" height="512" x="0" y="0" viewBox="0 0 1707 1707" style="enable-background:new 0 0 512 512" xml:space="preserve" fill-rule="evenodd" class=""><g><path d="M1631 1367H75c-41 0-75-34-75-76V227c0-41 34-75 75-75h1556c42 0 76 34 76 75v1064c0 42-34 76-76 76zm-734-112h-88c-9 0-16-8-16-17s7-16 16-16h88c10 0 17 7 17 16s-7 17-17 17zm710-145H100V294c0-23 19-42 42-42h1423c23 0 42 19 42 42zM721 1538c-9 0-17-7-17-16v-122h299v122c0 9-8 16-17 16H721z" fill="#8d27f4" opacity="1" data-original="#000000" class=""></path><path d="M1185 1555H521c-18 0-33-15-33-33 0-19 15-34 33-34h664c19 0 34 15 34 34 0 18-15 33-34 33z" fill="#8d27f4" opacity="1" data-original="#000000" class=""></path></g></svg>